<?xml version="1.0" standalone="no"?>
<!DOCTYPE svg PUBLIC "-//W3C//DTD SVG 1.1//EN" "http://www.w3.org/Graphics/SVG/1.1/DTD/svg11.dtd" >
<svg xmlns="http://www.w3.org/2000/svg">
<metadata>Generated by IcoMoon</metadata>
<defs>
<font id="icomoon" horiz-adv-x="1024">
<font-face units-per-em="1024" ascent="960" descent="-64" />
<missing-glyph horiz-adv-x="1024" />
<glyph unicode="&#x20;" horiz-adv-x="512" d="" />
<glyph unicode="&#xe900;" d="M872 95.389v-159.389h-652.311v122.893l74.902 28.699v338.365l18.207 11.3v26.236l-160.798 95.804v329.313h135.381v71.39h408.516v-31.729h68.213l48.662-69.066v-763.817z" />
<glyph unicode="&#xe901;" d="M840 47.389l-495.918 0.002-67.761-23.178v-48.214h563.678v71.389zM780.217 87.053h-435.571v198.303h435.571v-198.303zM484.496 214.76v-67.423c0 0 19.929 0 59.786 0v67.421l-59.786 0.002zM387.349 214.76v-67.423c0 0 19.929 0 59.786 0v67.421l-59.786 0.002zM678.583 214.76v-67.423c0 0 19.929 0 59.786 0v67.421l-59.786 0.002zM581.15 214.76v-67.423c0 0 19.929 0 59.786 0v67.421l-59.786 0.002zM780.214 340.882h0.005v71.389h-392.868l-42.703-23.798v-47.591h435.566zM344.646 475.728h435.571v206.236h-435.571v-206.236zM284.865 840.608v-309.356l-76.865 47.594v261.762h76.865zM680 608h59.786v-67.423c0 0-19.929 0-59.786 0v67.423zM384 608h59.786v-67.423c0 0-19.929 0-59.786 0v67.423zM488 608h59.786v-67.423c0 0-19.929 0-59.786 0v67.423zM584 608h59.786v-67.423c0 0-19.929 0-59.786 0v67.423zM662.245 912v-166.577h-81.665v166.577h81.665zM426.31 912v-166.577h-81.665v166.577h81.665zM544.282 912v-166.577h-81.673v166.577h81.673zM752.988 880.272l27.229-38.282v-96.567h-81.665v134.846l54.436 0.002z" />
<glyph unicode="&#xe902;" d="M512 959.49l509.846-255.745v-511.49l-509.846-255.749-509.848 255.747v511.49z" />
<glyph unicode="&#xe903;" d="M956.511 671.256v-446.509l-444.511-222.969-444.511 222.969v446.509l444.511 222.971 444.511-222.971zM76.096 666.373v-436.74l435.904-218.655 435.906 218.657v436.738l-435.906 218.653-435.904-218.653z" />
<glyph unicode="&#xe904;" d="M730.233 141.853h-436.466v70.65l154.045 29.437 64.188-29.435 64.184 29.435 154.049-29.435v-70.652zM544.092 271.376v-29.435l-32.092-11.776-32.094 11.774v29.437l32.094 17.665 32.092-17.665zM184.648 389.126h96.28v-100.087h-64.184l-32.096 23.55v76.537zM807.258 289.039h-64.188v100.087h96.28v-76.537l-32.092-23.55zM678.886 312.589h-333.772v76.537h333.772v-76.537zM293.767 389.126h25.673v-50.043h-25.673v50.043zM730.233 339.083h-25.676v50.043h25.676v-50.043zM184.648 512.763h96.28v-100.087h-96.28v100.087zM839.349 412.676h-96.28v100.087h96.28v-100.087zM424.705 530.426l87.295 5.887 87.293-5.887 53.916-47.1h25.676v-23.55l-57.767-47.1h-218.235l-57.767 47.1v23.55h25.673l53.918 47.1zM332.277 559.861h44.931v-52.985h-44.931v52.985zM691.721 506.876h-44.931v52.987h44.931v-52.987zM184.648 559.863h96.28v-23.55h-96.28v23.55zM839.349 536.313h-96.28v23.55h96.28v-23.55zM454.233 707.048h115.535v-72.086l44.931-18.697 12.837 14.246h25.673v-47.1l-32.090-23.546h-218.237l-32.094 23.55v47.1h25.673l12.839-14.248 44.931 18.697v72.088l0.002-0.004zM242.418 606.963l32.092-23.55h-64.186v76.535h32.094v-52.985zM813.676 583.413h-64.19l32.094 23.55v52.987h32.092v-76.537h0.004zM730.233 606.963h-25.676l-109.116 100.085v47.1h128.374l32.092-23.55v-94.2l-25.673-29.435zM428.557 707.048l-109.116-100.085h-25.673l-25.676 29.435v94.2l32.094 23.55h128.372v-47.1z" />
<glyph unicode="&#xe905;" d="M547.84-23.040c-251.665 0-455.68 204.015-455.68 455.68s204.015 455.68 455.68 455.68c251.665 0 455.68-204.015 455.68-455.68s-204.015-455.68-455.68-455.68z" />
<glyph unicode="&#xe906;" d="M542.72 28.16c220.56 0 399.36 181.092 399.36 404.48s-178.8 404.48-399.36 404.48c-220.56 0-399.36-181.092-399.36-404.48s178.8-404.48 399.36-404.48z" />
<glyph unicode="&#xe907;" d="M860.16 432.64c0-172.49-139.83-312.32-312.32-312.32s-312.32 139.83-312.32 312.32c0 172.49 139.83 312.32 312.32 312.32s312.32-139.83 312.32-312.32z" />
<glyph unicode="&#xe908;" d="M115.889 809.906l84.253-3.408 10.334 102.302 804.305-736.46 3.74-10.399c11.456-31.858 4.751-58.24-18.255-87.753-25.576-32.81-55.83-52.598-91.621-44.030l-9.048 2.166-899.596 676.958 109.916 33.1 5.973 67.523z" />
<glyph unicode="&#xe909;" d="M923.469 69.658c14.081-3.391 31.129 9.637 45.414 28.072s17.082 29.429 11.418 45.273l-738.519 683.877v-52.691h-89.419v-60.915l-70.443-13.393 841.549-630.222z" />
<glyph unicode="&#xe90a;" d="M512.001 960l511.999-255.999v-511.998l-511.999-256.003-512.001 256.001v511.998z" />
<glyph unicode="&#xe90b;" d="M960 672.142v-448.286l-448-223.856-448 223.856v448.286l448 223.858 448-223.858zM72.674 667.239v-438.478l439.326-219.525 439.328 219.527v438.476l-439.328 219.523-439.326-219.523z" />
<glyph unicode="&#xe90c;" d="M354.653 199.536h351.407v-78.644h-41.958v39.323h-94.408v-39.323h-41.961v39.323h-131.123v-39.323h-41.956v78.644zM601.163 494.449v78.644h104.897v-78.644l-83.919-49.151-178.325-167.118c0 0-168.048 0.049-209.797 216.269h367.143zM265.488 568.177c0 0 44.581 206.931 299.484 206.931 0 0 103.324-0.492 151.576-74.22 0 0-115.472-39.811-141.612-132.711h-309.448z" />
<glyph unicode="&#xe90d;" d="M643.119 612.414c0 0 80.878 78.644 146.86 78.644v-245.76c0 0-125.877-67.595-125.877-117.967h-94.408c0 0 8.496 73.964 178.325 157.288v127.797l-104.899-0.002zM485.772 283.096h178.325v-43.624h-178.325v43.624z" />
<glyph unicode="&#xe90e;" d="M736.213 705.549l-69.307 62.925v190.986h250.219l9.739-4.428c42.075-19.515 81.619-49.013 93.701-93.359 0.403-1.477 0.76-2.964 1.101-4.459l1.091-5.13v-235.957h-108.365v-304.257l-43.787-1.868c-7.013-0.782-13.963-4.137-17.963-9.767l-0.171-88.398c1.653-0.18 2.853-0.345 2.853-0.345 27.781-3.764 53.867-17.146 71.384-38.644 13.312-16.343 21.432-36.365 24.883-56.757l16.984-0.515v-179.040h-913.152v179.038h16.899c7.669 47.264 43.987 88.594 95.235 95.77 1.741 0.247 3.973 0.494 3.973 0.494v88.146c-3.933 5.799-10.72 9.116-18.107 10.019l-43.816 1.868v304.257h-108.365v235.95l1.093 5.138c10.187 45.519 54.133 78.467 93.408 97.167l1.4 0.659 9.731 4.42h250.219v-190.986l-69.307-62.925h77.248v126.955h293.931v-126.955h77.248z" />
<glyph unicode="&#xe90f;" d="M922.235-18.751h-820.469v89.615h820.469v-89.615zM837.091 167.949c68.021 0 69.664-67.108 69.664-67.211h-789.509c0 0 1.587 67.211 69.664 67.211h650.181zM217.869 197.82v112.023c-16.472 43.335-61.92 44.806-61.92 44.806v59.742h69.661c34.24 0 54.149 44.734 54.181 44.812h464.416c0.061-0.144 19.971-44.809 54.181-44.809h69.664v-59.742c0 0-45.451-1.474-61.923-44.812v-112.017l-588.261-0.003zM550.701 227.691v59.747h-77.403v-59.744l77.403-0.003zM419.117 287.438h-61.923v-59.744h61.92v59.742l0.003 0.003zM303.011 287.438h-61.92v-59.744h61.92v59.744zM666.805 227.693v59.742h-61.92v-59.742h61.92zM782.909 227.693v59.742h-61.92v-59.742h61.92zM217.869 444.264h-61.92v89.618l61.92-29.871v-59.747zM868.053 444.264h-61.923v59.747l61.92 29.871v-89.613l0.003-0.005zM612.624 787.793v-126.955h162.544c47.069-51.020 92.885-44.809 92.885-44.809v-44.806c-123.125 0-123.845-67.108-123.845-67.214h-464.416c0 0-0.627 67.214-123.845 67.214v44.806c0 0 45.813-6.213 92.885 44.809h162.544v126.955h201.248zM47.584 660.838v186.7c8.221 39.632 69.563 67.167 69.661 67.211h193.507v-126.955l-131.584-126.955h-131.584zM906.755 914.748c0.168-0.075 61.448-27.602 69.661-67.211v-186.7h-131.584l-131.584 126.955v126.955h193.507zM155.947 750.453h-61.92v-59.742h61.92v59.742zM929.973 690.711v59.742h-61.92v-59.742h61.92zM155.947 847.538h-61.92v-59.744h61.92v59.744zM929.973 787.793v59.742h-61.92v-59.742h61.92z" />
<glyph unicode="&#xe910;" d="M219.521 119.295l92.777 22.259v59.948c-1.174 0.455-2.345 0.907-3.516 1.369-75.821 30.014-142.811 81.281-182.084 151.187-26.073 46.419-38.291 99.362-38.602 152.129l-0.096 45.734h449.117c1.043 10.147 2.744 20.222 5.092 30.167h-365.352l-14.222 13.767c-43.881 44.042-57.423 114.259-19.98 169.854 16.731 24.844 40.625 44.55 66.209 60.555l12.243 7.603h31.316l3.973 7.176c28.733 51.32 75.695 93.785 133.222 114.024 3.412 1.215 6.872 2.303 10.371 3.262l6.381 1.671h282.356c56.36-13.273 109.061-40.709 149.33-80.663 38.792-38.493 68.807-86.087 83-137.862l14.944-55.909c0 0-17.698-27.554-21.736-37.191h8.3v-218.425l-193.283-185.49v-108.703l69.584-29.677v-162.080h-579.344v175.295z" />
<glyph unicode="&#xe911;" d="M360.633 102.785h325.334l69.713-29.695v-89.090h-38.73v59.392h-51.317v-59.392h-46.476v59.392h-72.62v-59.392h-69.716v59.392h-61.966v-59.392h-46.476v59.392h-54.221v-59.392h-46.478v96.515l92.951 22.27zM685.967 228.992v-96.51h-325.334v37.116c73.986 0 131.614 59.321 131.684 59.392l193.65 0.002zM430.349 228.992h-69.716c0 0-224.633 53.905-224.633 274.69h449.268c0 0-16.989 148.48 108.441 148.48 0 0 53.532 0.328 79.357-43.144 19.777-33.577 13.473-75.712-15.355-102.612-19.213-17.946-50.919-33.584-102.73-32.42l-224.633-244.992zM527.172 258.687c0 0 84.040 141.682 209.143 185.602 0 0 80.338 21.41 81.331 66.815v89.087h61.971v-155.903l-193.652-185.602h-158.792zM737.529 563.074l-43.818 41.996-43.818-41.996 43.818-41.998 43.818 41.998zM554.283 622.464h-356.314c0 0-88.64 84.602 38.73 163.328h480.251c0 0 112.755-26.759 162.667-89.087 0 0 9.152-68.52-61.968-66.818 0 0-131.243 151.417-263.366-7.423zM879.617 726.4c-85.681 91.046-193.52 89.090-193.652 89.090h-387.295c43.015 78.056 116.1 96.492 116.189 96.51h271.111c154.387-36.040 193.647-185.6 193.647-185.6z" />
<glyph unicode="&#xe912;" d="M942.252 402.229l79.518-107.377v-208.107c-0.166-43.057-18.625-85.667-50.086-113.155-18.887-16.487-41.398-28.652-65.144-34.687l-5.741-1.396h-669.32v24.908h-155.452l-73.791 46.46v383.016l187.553 46.343 41.69-21.893v19.096h197.624v348.918h-31.619v174.134h489.9v-174.137h-31.619v-382.124h86.487z" />
<glyph unicode="&#xe913;" d="M476.43 250.494h47.442c15.796 0 15.796-23.432 15.796-39.112v-224.164h-63.237v263.277zM444.811-12.786h-166.005v398.516h166.005v-398.516zM919.108 352.522l55.334-74.723v-190.956c0-81.188-78.924-99.597-79.050-99.625h-150.196v149.441c4.728 56.566 110.671 116.235 110.671 116.235v99.625l63.24 0.003zM705.675-12.786h-126.48v240.772c0 0-1.599 51.309-47.431 58.116h-55.331v99.628h332.010v-107.932c0 0-85.923-41.403-102.768-107.929v-182.655zM247.187 12.122h-158.061l-39.56 24.908v46.33h102.762v38.628h-102.762v43.745h102.762v45.649h-102.762v41.035h102.762v41.679h-102.762v58.424l134.384 33.211 63.237-33.208v-340.4zM381.571 103.45h-39.525v-74.723h39.525v74.723zM381.571 211.382h-39.525v-74.723h39.525v74.723zM381.571 319.311h-39.525v-74.721h39.525v74.721zM476.43 626.502h332.010v-174.352h-332.010v174.352zM476.43 659.711v141.14h332.010v-141.14h-332.010zM772.867 767.642h-59.301v-41.512h59.301v41.512zM577.566 767.642h-69.518v-41.512h69.518v41.512zM681.566 767.642h-72v-41.512h72v41.512zM444.811 908.783h395.248v-74.721h-395.248v74.721z" />
<glyph unicode="&#xe914;" d="M926.851 523.442h29.892v-126.9h67.257v-420.543h-207.717l-121.281 128.714v251.982h-44.66v-380.696h-276.686v380.696h-44.66v-251.982l-121.281-128.714h-207.717v420.543h67.257v126.897h29.892v396.56h829.702z" />
<glyph unicode="&#xe915;" d="M414.603 348.886h194.794v-332.886h-194.794v332.886zM984 16h-149.841l-97.397 103.038v261.557h59.934v-229.854l67.43-71.332h119.874v-63.408zM287.238 380.595v-261.557l-97.397-103.038h-149.841v63.405h119.874l67.427 71.332v229.857h59.937zM541.967 47.703v39.632h-59.934v-39.63l59.934-0.003zM984 111.111h-97.397l-59.934 63.408v39.63h157.332v-103.038zM197.332 214.146v-39.63l-59.937-63.405h-97.395v103.035h157.332zM541.967 147.568v39.63h-59.934v-39.63h59.934zM541.967 242.681v39.63h-59.934v-39.63h59.934zM983.997 245.849h-157.334v103.038h157.334v-103.038zM197.332 348.889v-103.035h-157.332v103.035h157.332zM916.57 396.446h-89.907v79.257h89.904v-79.259l0.003 0.003zM699.299 396.446h-89.904v79.257h89.904v-79.257zM197.334 475.703v-79.259h-89.904v79.259h89.904zM414.603 475.703v-79.259h-89.904v79.259h89.904zM467.047 515.332h89.907v-79.259h-89.907v79.259zM796.701 444h-59.937v31.703h59.934v-31.703h0.003zM287.241 475.703v-31.703h-59.934v31.703h59.934zM541.97 713.481h194.794v-128.709c0-23.97-12.833-45.591-32.538-54.809l-38.366-17.959c-12.153-5.716-25.949-6.118-38.382-1.12-12.813 5.145-30.065 12.064-45.725 18.342-23.855 9.576-39.783 34.952-39.783 63.408v120.847zM482.035 713.481v-120.847c0-28.453-15.928-53.832-39.783-63.405l-45.725-18.342c-12.432-5-26.228-4.598-38.382 1.117l-38.366 17.959c-19.705 9.219-32.538 30.84-32.538 54.809v128.709h194.794zM886.605 658h-67.427v-63.408h67.427v-84.254c-11.161-4.087-23.325-3.894-34.365 0.546-12.813 5.145-30.065 12.064-45.725 18.342-23.855 9.576-39.783 34.952-39.783 63.408v120.847h119.874v-55.481zM257.274 713.481v-120.847c0-28.453-15.928-53.832-39.783-63.405l-45.725-18.342c-11.040-4.44-23.204-4.633-34.365-0.546v84.251h67.427v63.405h-67.43v55.484h119.876zM684.318 658h-89.904v-63.408h89.902v63.405l0.003 0.003zM429.586 594.592v63.405h-89.902v-63.405h89.902zM137.397 776.889h59.934v63.405h-59.934v31.705h749.206v-31.703h-59.934v-63.408h59.934v-31.703h-749.206v31.703zM571.934 840.295h-29.967v-63.405h29.967v63.405zM699.301 840.295h-67.427v-63.405h67.427v63.405zM796.699 840.295h-67.43v-63.405h67.433v63.405h-0.003zM482.030 776.889v63.405h-29.967v-63.405h29.967zM392.129 776.889v63.405h-67.43v-63.405h67.43zM294.731 776.889v63.405h-67.433v-63.405h67.433z" />
</font>
</defs>
</svg>
